<svg width="539" height="123" viewBox="0 0 539 123" fill="none" xmlns="http://www.w3.org/2000/svg">
<rect x="0.5" y="14.5" width="538" height="94" fill="#282C33"/>
<rect x="0.5" y="14.5" width="538" height="94" stroke="#ABB2BF"/>
<path d="M46.3906 54.352L57.6586 61.312V63.628L46.3906 70.648L35.1346 63.628V61.324L46.3906 54.352ZM46.3906 67.876L55.3546 62.476L46.3906 57.076L37.4506 62.476L46.3906 67.876ZM87.3519 53.44V55.564H83.7759V67.864H87.3519V70H77.3919V67.864H80.9679V55.564H77.3919V53.44H87.3519ZM108.837 70H106.053V53.44H108.837V70ZM108.957 61.156L114.717 53.44H117.777L111.981 60.964L118.233 70H114.897L108.957 61.156ZM120.48 70V57.328H122.796L123 58.972C123.528 58.324 124.152 57.832 124.872 57.496C125.592 57.16 126.332 56.992 127.092 56.992C128.276 56.992 129.16 57.324 129.744 57.988C130.336 58.644 130.632 59.568 130.632 60.76V70H127.944V62.092C127.944 61.356 127.9 60.764 127.812 60.316C127.724 59.868 127.548 59.544 127.284 59.344C127.028 59.144 126.644 59.044 126.132 59.044C125.724 59.044 125.336 59.132 124.968 59.308C124.6 59.484 124.264 59.716 123.96 60.004C123.656 60.284 123.392 60.584 123.168 60.904V70H120.48ZM139.946 56.992C141.186 56.992 142.23 57.268 143.078 57.82C143.926 58.372 144.566 59.144 144.998 60.136C145.438 61.128 145.658 62.296 145.658 63.64C145.658 64.976 145.434 66.148 144.986 67.156C144.546 68.156 143.898 68.936 143.042 69.496C142.194 70.048 141.158 70.324 139.934 70.324C138.71 70.324 137.67 70.056 136.814 69.52C135.966 68.976 135.318 68.204 134.87 67.204C134.43 66.204 134.21 65.024 134.21 63.664C134.21 62.344 134.43 61.184 134.87 60.184C135.318 59.184 135.97 58.404 136.826 57.844C137.682 57.276 138.722 56.992 139.946 56.992ZM139.946 59.08C138.978 59.08 138.25 59.452 137.762 60.196C137.274 60.932 137.03 62.088 137.03 63.664C137.03 65.232 137.27 66.388 137.75 67.132C138.238 67.876 138.966 68.248 139.934 68.248C140.902 68.248 141.626 67.876 142.106 67.132C142.594 66.388 142.838 65.224 142.838 63.64C142.838 62.08 142.598 60.932 142.118 60.196C141.638 59.452 140.914 59.08 139.946 59.08ZM159.173 70H155.813L154.385 61L152.849 70H149.561L147.413 57.328H150.005L151.325 68.332L153.089 58.936H155.777L157.421 68.332L158.741 57.328H161.237L159.173 70ZM185.806 70V62.476H180.406V70H177.622V53.44H180.406V60.184H185.806V53.44H188.59V70H185.806ZM197.509 56.992C198.749 56.992 199.793 57.268 200.641 57.82C201.489 58.372 202.129 59.144 202.561 60.136C203.001 61.128 203.221 62.296 203.221 63.64C203.221 64.976 202.997 66.148 202.549 67.156C202.109 68.156 201.461 68.936 200.605 69.496C199.757 70.048 198.721 70.324 197.497 70.324C196.273 70.324 195.233 70.056 194.377 69.52C193.529 68.976 192.881 68.204 192.433 67.204C191.993 66.204 191.773 65.024 191.773 63.664C191.773 62.344 191.993 61.184 192.433 60.184C192.881 59.184 193.533 58.404 194.389 57.844C195.245 57.276 196.285 56.992 197.509 56.992ZM197.509 59.08C196.541 59.08 195.813 59.452 195.325 60.196C194.837 60.932 194.593 62.088 194.593 63.664C194.593 65.232 194.833 66.388 195.313 67.132C195.801 67.876 196.529 68.248 197.497 68.248C198.465 68.248 199.189 67.876 199.669 67.132C200.157 66.388 200.401 65.224 200.401 63.64C200.401 62.08 200.161 60.932 199.681 60.196C199.201 59.452 198.477 59.08 197.509 59.08ZM216.736 70H213.376L211.948 61L210.412 70H207.124L204.976 57.328H207.568L208.888 68.332L210.652 58.936H213.34L214.984 68.332L216.304 57.328H218.799L216.736 70ZM242.025 55.684V70H239.241V55.684H234.273V53.44H247.113L246.825 55.684H242.025ZM255.071 56.992C256.311 56.992 257.355 57.268 258.203 57.82C259.051 58.372 259.691 59.144 260.123 60.136C260.563 61.128 260.783 62.296 260.783 63.64C260.783 64.976 260.559 66.148 260.111 67.156C259.671 68.156 259.023 68.936 258.167 69.496C257.319 70.048 256.283 70.324 255.059 70.324C253.835 70.324 252.795 70.056 251.939 69.52C251.091 68.976 250.443 68.204 249.995 67.204C249.555 66.204 249.335 65.024 249.335 63.664C249.335 62.344 249.555 61.184 249.995 60.184C250.443 59.184 251.095 58.404 251.951 57.844C252.807 57.276 253.847 56.992 255.071 56.992ZM255.071 59.08C254.103 59.08 253.375 59.452 252.887 60.196C252.399 60.932 252.155 62.088 252.155 63.664C252.155 65.232 252.395 66.388 252.875 67.132C253.363 67.876 254.091 68.248 255.059 68.248C256.027 68.248 256.751 67.876 257.231 67.132C257.719 66.388 257.963 65.224 257.963 63.64C257.963 62.08 257.723 60.932 257.243 60.196C256.763 59.452 256.039 59.08 255.071 59.08ZM285.233 53.104C286.353 53.104 287.297 53.252 288.065 53.548C288.841 53.836 289.561 54.252 290.225 54.796L288.773 56.524C288.277 56.108 287.745 55.8 287.177 55.6C286.609 55.4 286.005 55.3 285.365 55.3C284.541 55.3 283.781 55.508 283.085 55.924C282.389 56.34 281.829 57.016 281.405 57.952C280.989 58.888 280.781 60.136 280.781 61.696C280.781 63.224 280.981 64.456 281.381 65.392C281.781 66.328 282.329 67.008 283.025 67.432C283.721 67.856 284.501 68.068 285.365 68.068C286.253 68.068 286.989 67.924 287.573 67.636C288.157 67.34 288.673 67.008 289.121 66.64L290.465 68.356C289.913 68.892 289.213 69.356 288.365 69.748C287.517 70.132 286.485 70.324 285.269 70.324C283.869 70.324 282.609 69.996 281.489 69.34C280.377 68.676 279.497 67.704 278.849 66.424C278.209 65.144 277.889 63.568 277.889 61.696C277.889 59.84 278.221 58.276 278.885 57.004C279.549 55.724 280.437 54.756 281.549 54.1C282.661 53.436 283.889 53.104 285.233 53.104ZM295.399 64.528C295.455 65.392 295.639 66.1 295.951 66.652C296.263 67.196 296.671 67.596 297.175 67.852C297.687 68.108 298.247 68.236 298.855 68.236C299.479 68.236 300.055 68.14 300.583 67.948C301.111 67.756 301.643 67.484 302.179 67.132L303.343 68.74C302.751 69.22 302.059 69.604 301.267 69.892C300.475 70.18 299.627 70.324 298.723 70.324C297.411 70.324 296.299 70.044 295.387 69.484C294.483 68.924 293.795 68.144 293.323 67.144C292.851 66.144 292.615 64.988 292.615 63.676C292.615 62.404 292.847 61.268 293.311 60.268C293.775 59.26 294.439 58.464 295.303 57.88C296.167 57.288 297.199 56.992 298.399 56.992C299.527 56.992 300.495 57.248 301.303 57.76C302.119 58.272 302.747 59 303.187 59.944C303.635 60.88 303.859 62.008 303.859 63.328C303.859 63.544 303.851 63.76 303.835 63.976C303.827 64.184 303.815 64.368 303.799 64.528H295.399ZM298.423 58.984C297.583 58.984 296.887 59.284 296.335 59.884C295.791 60.484 295.475 61.42 295.387 62.692H301.255C301.231 61.5 300.975 60.584 300.487 59.944C300.007 59.304 299.319 58.984 298.423 58.984ZM307.558 70V57.328H309.874L310.078 58.972C310.606 58.324 311.23 57.832 311.95 57.496C312.67 57.16 313.41 56.992 314.17 56.992C315.354 56.992 316.238 57.324 316.822 57.988C317.414 58.644 317.71 59.568 317.71 60.76V70H315.022V62.092C315.022 61.356 314.978 60.764 314.89 60.316C314.802 59.868 314.626 59.544 314.362 59.344C314.106 59.144 313.722 59.044 313.21 59.044C312.802 59.044 312.414 59.132 312.046 59.308C311.678 59.484 311.342 59.716 311.038 60.004C310.734 60.284 310.47 60.584 310.246 60.904V70H307.558ZM332.533 69.328C332.069 69.624 331.513 69.864 330.865 70.048C330.217 70.232 329.541 70.324 328.837 70.324C327.365 70.324 326.245 69.944 325.477 69.184C324.717 68.416 324.337 67.408 324.337 66.16V59.284H321.517V57.328H324.337V54.496L327.025 54.172V57.328H331.297L330.997 59.284H327.025V66.136C327.025 66.816 327.193 67.324 327.529 67.66C327.873 67.988 328.433 68.152 329.209 68.152C329.673 68.152 330.101 68.096 330.493 67.984C330.885 67.872 331.241 67.728 331.561 67.552L332.533 69.328ZM338.571 64.528C338.627 65.392 338.811 66.1 339.123 66.652C339.435 67.196 339.843 67.596 340.347 67.852C340.859 68.108 341.419 68.236 342.027 68.236C342.651 68.236 343.227 68.14 343.755 67.948C344.283 67.756 344.815 67.484 345.351 67.132L346.515 68.74C345.923 69.22 345.231 69.604 344.439 69.892C343.647 70.18 342.799 70.324 341.895 70.324C340.583 70.324 339.471 70.044 338.559 69.484C337.655 68.924 336.967 68.144 336.495 67.144C336.023 66.144 335.787 64.988 335.787 63.676C335.787 62.404 336.019 61.268 336.483 60.268C336.947 59.26 337.611 58.464 338.475 57.88C339.339 57.288 340.371 56.992 341.571 56.992C342.699 56.992 343.667 57.248 344.475 57.76C345.291 58.272 345.919 59 346.359 59.944C346.807 60.88 347.031 62.008 347.031 63.328C347.031 63.544 347.023 63.76 347.007 63.976C346.999 64.184 346.987 64.368 346.971 64.528H338.571ZM341.595 58.984C340.755 58.984 340.059 59.284 339.507 59.884C338.963 60.484 338.647 61.42 338.559 62.692H344.427C344.403 61.5 344.147 60.584 343.659 59.944C343.179 59.304 342.491 58.984 341.595 58.984ZM350.85 70V68.08H352.71V59.236H350.85V57.328H354.762L355.254 60.268C355.726 59.204 356.31 58.396 357.006 57.844C357.71 57.284 358.614 57.004 359.718 57.004C360.094 57.004 360.43 57.036 360.726 57.1C361.03 57.156 361.33 57.232 361.626 57.328L360.822 59.632C360.566 59.56 360.326 59.508 360.102 59.476C359.878 59.436 359.63 59.416 359.358 59.416C358.438 59.416 357.642 59.76 356.97 60.448C356.306 61.136 355.782 62.112 355.398 63.376V68.08H357.954V70H350.85ZM359.25 61.996V58.876L359.586 57.328H361.626L361.17 61.996H359.25ZM387.479 66.016H381.563L380.411 70H377.579L382.847 53.44H386.303L391.583 70H388.631L387.479 66.016ZM382.139 63.868H386.891L384.527 55.6L382.139 63.868ZM416.692 61.636C416.692 60.316 416.56 59.256 416.296 58.456C416.04 57.656 415.692 57.048 415.252 56.632C414.82 56.216 414.336 55.936 413.8 55.792C413.272 55.648 412.732 55.576 412.18 55.576H410.656V67.888H412.192C412.768 67.888 413.324 67.796 413.86 67.612C414.396 67.428 414.876 67.108 415.3 66.652C415.732 66.196 416.072 65.564 416.32 64.756C416.568 63.94 416.692 62.9 416.692 61.636ZM419.62 61.636C419.62 63.004 419.472 64.172 419.176 65.14C418.888 66.108 418.488 66.912 417.976 67.552C417.472 68.184 416.888 68.68 416.224 69.04C415.568 69.392 414.872 69.64 414.136 69.784C413.4 69.928 412.664 70 411.928 70H407.872V53.44H411.652C412.66 53.44 413.636 53.548 414.58 53.764C415.532 53.98 416.384 54.38 417.136 54.964C417.896 55.548 418.5 56.376 418.948 57.448C419.396 58.52 419.62 59.916 419.62 61.636ZM429.607 57.328V68.032H433.051V70H423.127V68.032H426.919V59.296H423.247V57.328H429.607ZM427.735 51.124C428.263 51.124 428.687 51.284 429.007 51.604C429.335 51.924 429.499 52.324 429.499 52.804C429.499 53.284 429.335 53.688 429.007 54.016C428.687 54.344 428.263 54.508 427.735 54.508C427.223 54.508 426.803 54.344 426.475 54.016C426.147 53.688 425.983 53.284 425.983 52.804C425.983 52.324 426.147 51.924 426.475 51.604C426.803 51.284 427.223 51.124 427.735 51.124ZM448.174 57.328L443.71 70H440.566L436.102 57.328H438.982L442.198 67.768L445.426 57.328H448.174ZM489.692 53.356L502.568 61.312V63.628L493.364 69.364L492.044 67.468L500.264 62.476L488.456 55.336L489.692 53.356ZM477.332 55.576L478.568 57.52L470.36 62.476L481.676 69.352L480.356 71.284L468.044 63.628V61.324L477.332 55.576ZM480.68 73.792L478.544 72.82L489.344 50.512L491.456 51.508L480.68 73.792Z" fill="white"/>
<rect width="41.472" height="28.704" transform="translate(11)" fill="#282C33"/>
<path d="M29.56 19.616C29.56 21.0453 29.0373 22.2507 27.992 23.232C26.968 24.2133 25.72 24.704 24.248 24.704C22.7333 24.704 21.4747 24.2133 20.472 23.232C19.4907 22.2507 19 21.0453 19 19.616C19 18.9333 19.096 18.208 19.288 17.44C19.48 16.672 19.864 15.68 20.44 14.464L25.4 4H30.2L27.544 15.584C28.1413 16.0107 28.6213 16.576 28.984 17.28C29.368 17.9627 29.56 18.7413 29.56 19.616ZM43.8 19.616C43.8 21.0453 43.2773 22.2507 42.232 23.232C41.1867 24.2133 39.9387 24.704 38.488 24.704C37.016 24.704 35.768 24.2133 34.744 23.232C33.7413 22.2507 33.24 21.0453 33.24 19.616C33.24 18.9333 33.336 18.208 33.528 17.44C33.72 16.672 34.1147 15.68 34.712 14.464L39.704 4H44.472L41.784 15.584C42.4027 16.0107 42.8933 16.576 43.256 17.28C43.6187 17.9627 43.8 18.7413 43.8 19.616Z" fill="#ABB2BF"/>
<rect width="41.472" height="28.704" transform="translate(481 94)" fill="#282C33"/>
<path d="M499.56 113.616C499.56 115.045 499.037 116.251 497.992 117.232C496.968 118.213 495.72 118.704 494.248 118.704C492.733 118.704 491.475 118.213 490.472 117.232C489.491 116.251 489 115.045 489 113.616C489 112.933 489.096 112.208 489.288 111.44C489.48 110.672 489.864 109.68 490.44 108.464L495.4 98H500.2L497.544 109.584C498.141 110.011 498.621 110.576 498.984 111.28C499.368 111.963 499.56 112.741 499.56 113.616ZM513.8 113.616C513.8 115.045 513.277 116.251 512.232 117.232C511.187 118.213 509.939 118.704 508.488 118.704C507.016 118.704 505.768 118.213 504.744 117.232C503.741 116.251 503.24 115.045 503.24 113.616C503.24 112.933 503.336 112.208 503.528 111.44C503.72 110.672 504.115 109.68 504.712 108.464L509.704 98H514.472L511.784 109.584C512.403 110.011 512.893 110.576 513.256 111.28C513.619 111.963 513.8 112.741 513.8 113.616Z" fill="#ABB2BF"/>
</svg>
